<svg width="16" height="16" viewBox="0 0 16 16" fill="none" xmlns="http://www.w3.org/2000/svg">
<g clip-path="url(#clip0_4_98)">
<rect width="16" height="16" rx="3" fill="#D6AC57"/>
<path d="M4.6857 11.4716C4.6857 10.4146 5.4657 8.9557 6.47959 8.65666V8.65666C6.77615 8.56918 7.00144 8.65378 7.28008 8.78781C7.94413 9.10724 8.64821 9.9615 9.37141 9.9615C9.45277 9.9615 9.53413 9.94379 9.61562 9.91297C10.6488 9.52229 11.3143 9.80692 11.3143 10.9115V12C11.3143 13.1046 10.4188 14 9.31427 14H6.6857C5.58113 14 4.6857 13.1046 4.6857 12V11.4716Z" fill="#D65656"/>
<rect x="6.6857" y="1.31429" width="2.62857" height="2" rx="1" fill="#D9D9D9"/>
<path d="M6.66666 3.33333H9.33332V1.99999C9.33332 1.82318 9.26308 1.65361 9.13806 1.52859C9.01304 1.40357 8.84347 1.33333 8.66666 1.33333H7.33332C7.15651 1.33333 6.98694 1.40357 6.86192 1.52859C6.73689 1.65361 6.66666 1.82318 6.66666 1.99999V3.33333Z" stroke="black" stroke-linecap="round" stroke-linejoin="round"/>
<path d="M9.33332 2.33333C9.33332 3.41733 9.67132 4.47466 10.3 5.35799L10.3333 5.40466C10.9838 6.31846 11.3334 7.41229 11.3333 8.53399V12.6667C11.3333 13.0203 11.1928 13.3594 10.9428 13.6095C10.6927 13.8595 10.3536 14 9.99999 14H5.99999C5.64637 14 5.30723 13.8595 5.05718 13.6095C4.80713 13.3594 4.66666 13.0203 4.66666 12.6667V8.53333C4.66666 7.412 5.01599 6.31866 5.66666 5.40466L5.69999 5.35799C6.32877 4.47476 6.66666 3.41752 6.66666 2.33333" stroke="black" stroke-linecap="round" stroke-linejoin="round"/>
<path d="M4.66867 9.86867C4.93461 9.7537 5.16434 9.56867 5.33334 9.33334C5.48478 9.12234 5.68532 8.95139 5.91762 8.83524C6.14992 8.71909 6.40701 8.66123 6.66667 8.66667C6.92633 8.66123 7.18342 8.71909 7.41572 8.83524C7.64802 8.95139 7.84856 9.12234 8 9.33334C8.15145 9.54433 8.35198 9.71529 8.58429 9.83144C8.81659 9.94759 9.07367 10.0054 9.33334 10C9.593 10.0054 9.85009 9.94759 10.0824 9.83144C10.3147 9.71529 10.5152 9.54433 10.6667 9.33334C10.836 9.09723 11.0665 8.91171 11.3333 8.79667" stroke="black" stroke-linecap="round" stroke-linejoin="round"/>
</g>
<defs>
<clipPath id="clip0_4_98">
<rect width="16" height="16" rx="3" fill="white"/>
</clipPath>
</defs>
</svg>
