<svg width="84" height="17" viewBox="0 0 84 17" fill="none" xmlns="http://www.w3.org/2000/svg">
<path d="M20.2745 16.48C19.9758 16.48 19.7358 16.3573 19.5545 16.112L15.8585 11.248L17.3145 9.76L21.1385 14.816C21.2878 15.0187 21.3625 15.2373 21.3625 15.472C21.3625 15.7707 21.2505 16.016 21.0265 16.208C20.8025 16.3893 20.5518 16.48 20.2745 16.48ZM20.4665 5.2C20.7225 5.2 20.9305 5.30666 21.0905 5.52C21.2612 5.72266 21.3465 5.93066 21.3465 6.144C21.3465 6.368 21.2505 6.576 21.0585 6.768L14.3545 13.184L14.2745 10.896L19.6825 5.568C19.9278 5.32266 20.1892 5.2 20.4665 5.2ZM13.5545 16.48C13.2558 16.48 13.0158 16.3893 12.8345 16.208C12.6532 16.016 12.5625 15.7813 12.5625 15.504V6.256C12.5625 5.97866 12.6585 5.74933 12.8505 5.568C13.0425 5.376 13.2878 5.28 13.5865 5.28C13.8852 5.28 14.1198 5.376 14.2905 5.568C14.4718 5.74933 14.5625 5.97866 14.5625 6.256V15.504C14.5625 15.7813 14.4718 16.016 14.2905 16.208C14.1092 16.3893 13.8638 16.48 13.5545 16.48Z" fill="#D65656"/>
<path d="M24.1829 5.28H29.5429C29.8202 5.28 30.0495 5.37066 30.2309 5.552C30.4229 5.72266 30.5189 5.94666 30.5189 6.224C30.5189 6.49066 30.4229 6.70933 30.2309 6.88C30.0495 7.04 29.8202 7.12 29.5429 7.12H25.0629L25.2069 6.848V9.968L25.0789 9.84H28.8229C29.1002 9.84 29.3295 9.93066 29.5109 10.112C29.7029 10.2827 29.7989 10.5067 29.7989 10.784C29.7989 11.0507 29.7029 11.2693 29.5109 11.44C29.3295 11.6 29.1002 11.68 28.8229 11.68H25.1269L25.2069 11.552V14.784L25.0789 14.64H29.5429C29.8202 14.64 30.0495 14.736 30.2309 14.928C30.4229 15.1093 30.5189 15.3227 30.5189 15.568C30.5189 15.8347 30.4229 16.0533 30.2309 16.224C30.0495 16.3947 29.8202 16.48 29.5429 16.48H24.1829C23.9055 16.48 23.6709 16.3893 23.4789 16.208C23.2975 16.016 23.2069 15.7813 23.2069 15.504V6.256C23.2069 5.97866 23.2975 5.74933 23.4789 5.568C23.6709 5.376 23.9055 5.28 24.1829 5.28Z" fill="#D65656"/>
<path d="M36.3151 16.48C36.0165 16.48 35.7711 16.3893 35.5791 16.208C35.3871 16.016 35.2911 15.7813 35.2911 15.504V6.224H37.3711V15.504C37.3711 15.7813 37.2698 16.016 37.0671 16.208C36.8751 16.3893 36.6245 16.48 36.3151 16.48ZM32.7791 7.12C32.5018 7.12 32.2671 7.03466 32.0751 6.864C31.8938 6.69333 31.8031 6.46933 31.8031 6.192C31.8031 5.91466 31.8938 5.696 32.0751 5.536C32.2671 5.36533 32.5018 5.28 32.7791 5.28H39.8831C40.1605 5.28 40.3898 5.36533 40.5711 5.536C40.7631 5.70666 40.8591 5.93066 40.8591 6.208C40.8591 6.48533 40.7631 6.70933 40.5711 6.88C40.3898 7.04 40.1605 7.12 39.8831 7.12H32.7791Z" fill="#D65656"/>
<path d="M50.2262 5.824C50.5036 5.96266 50.6636 6.18133 50.7062 6.48C50.7596 6.77866 50.6849 7.05066 50.4823 7.296C50.3436 7.488 50.1622 7.59466 49.9382 7.616C49.7249 7.63733 49.5062 7.59466 49.2822 7.488C49.0262 7.37066 48.7542 7.28 48.4662 7.216C48.1889 7.152 47.8956 7.12 47.5863 7.12C47.0103 7.12 46.4929 7.21066 46.0342 7.392C45.5862 7.57333 45.2022 7.83466 44.8822 8.176C44.5622 8.50666 44.3169 8.90133 44.1462 9.36C43.9862 9.81866 43.9062 10.3253 43.9062 10.88C43.9062 11.5307 43.9969 12.096 44.1782 12.576C44.3702 13.056 44.6316 13.456 44.9622 13.776C45.2929 14.096 45.6822 14.336 46.1302 14.496C46.5782 14.6453 47.0636 14.72 47.5863 14.72C47.8743 14.72 48.1622 14.6933 48.4502 14.64C48.7382 14.5867 49.0156 14.4907 49.2822 14.352C49.5062 14.2453 49.7249 14.208 49.9382 14.24C50.1622 14.272 50.3489 14.384 50.4982 14.576C50.7116 14.8427 50.7862 15.12 50.7222 15.408C50.6689 15.6853 50.5089 15.888 50.2422 16.016C49.9649 16.1547 49.6769 16.272 49.3783 16.368C49.0903 16.4533 48.7969 16.5173 48.4982 16.56C48.1996 16.6133 47.8956 16.64 47.5863 16.64C46.8183 16.64 46.0876 16.5173 45.3942 16.272C44.7116 16.0267 44.0982 15.664 43.5542 15.184C43.0209 14.704 42.5996 14.1067 42.2902 13.392C41.9809 12.6667 41.8262 11.8293 41.8262 10.88C41.8262 10.0587 41.9649 9.30133 42.2422 8.608C42.5302 7.91466 42.9302 7.31733 43.4422 6.816C43.9649 6.304 44.5782 5.90933 45.2822 5.632C45.9862 5.344 46.7543 5.2 47.5863 5.2C48.0556 5.2 48.5142 5.25333 48.9622 5.36C49.4102 5.46666 49.8316 5.62133 50.2262 5.824Z" fill="#D65656"/>
<path d="M53.6015 5.28C53.8575 5.28 54.0815 5.376 54.2735 5.568C54.4762 5.74933 54.5775 5.97866 54.5775 6.256V15.504C54.5775 15.7813 54.4762 16.016 54.2735 16.208C54.0708 16.3893 53.8362 16.48 53.5695 16.48C53.2708 16.48 53.0308 16.3893 52.8495 16.208C52.6682 16.016 52.5775 15.7813 52.5775 15.504V6.256C52.5775 5.97866 52.6735 5.74933 52.8655 5.568C53.0575 5.376 53.3028 5.28 53.6015 5.28ZM60.6895 5.28C60.9882 5.28 61.2282 5.376 61.4095 5.568C61.5908 5.74933 61.6815 5.97866 61.6815 6.256V15.504C61.6815 15.7813 61.5855 16.016 61.3935 16.208C61.2122 16.3893 60.9668 16.48 60.6575 16.48C60.4015 16.48 60.1722 16.3893 59.9695 16.208C59.7775 16.016 59.6815 15.7813 59.6815 15.504V6.256C59.6815 5.97866 59.7828 5.74933 59.9855 5.568C60.1882 5.376 60.4228 5.28 60.6895 5.28ZM53.5535 9.936H60.6895V11.776H53.5535V9.936Z" fill="#D65656"/>
<path d="M72.1895 5.264C72.4668 5.264 72.6908 5.36 72.8615 5.552C73.0322 5.73333 73.1175 5.96266 73.1175 6.24V12.032C73.1175 12.9173 72.9255 13.7013 72.5415 14.384C72.1682 15.0667 71.6508 15.6 70.9895 15.984C70.3282 16.368 69.5602 16.56 68.6855 16.56C67.8108 16.56 67.0375 16.368 66.3655 15.984C65.7042 15.6 65.1815 15.0667 64.7975 14.384C64.4242 13.7013 64.2375 12.9173 64.2375 12.032V6.24C64.2375 5.96266 64.3335 5.73333 64.5255 5.552C64.7175 5.36 64.9628 5.264 65.2615 5.264C65.5068 5.264 65.7255 5.36 65.9175 5.552C66.1202 5.73333 66.2215 5.96266 66.2215 6.24V12.032C66.2215 12.5653 66.3335 13.0293 66.5575 13.424C66.7922 13.808 67.0962 14.1067 67.4695 14.32C67.8535 14.5333 68.2588 14.64 68.6855 14.64C69.1442 14.64 69.5708 14.5333 69.9655 14.32C70.3602 14.1067 70.6802 13.808 70.9255 13.424C71.1708 13.0293 71.2935 12.5653 71.2935 12.032V6.24C71.2935 5.96266 71.3735 5.73333 71.5335 5.552C71.6935 5.36 71.9122 5.264 72.1895 5.264Z" fill="#D65656"/>
<path d="M80.3027 5.28C80.8574 5.28 81.3748 5.44 81.8548 5.76C82.3454 6.08 82.7401 6.512 83.0387 7.056C83.3374 7.6 83.4867 8.208 83.4867 8.88C83.4867 9.54133 83.3374 10.144 83.0387 10.688C82.7401 11.232 82.3454 11.6693 81.8548 12C81.3748 12.32 80.8574 12.48 80.3027 12.48H77.3587L77.5187 12.192V15.504C77.5187 15.7813 77.4334 16.016 77.2627 16.208C77.0921 16.3893 76.8681 16.48 76.5908 16.48C76.3241 16.48 76.1054 16.3893 75.9347 16.208C75.7641 16.016 75.6787 15.7813 75.6787 15.504V6.256C75.6787 5.97866 75.7694 5.74933 75.9507 5.568C76.1427 5.376 76.3774 5.28 76.6547 5.28H80.3027ZM80.3027 10.656C80.5054 10.656 80.7027 10.5707 80.8947 10.4C81.0867 10.2293 81.2467 10.0107 81.3747 9.744C81.5027 9.46666 81.5667 9.17866 81.5667 8.88C81.5667 8.57066 81.5027 8.28266 81.3747 8.016C81.2467 7.74933 81.0867 7.536 80.8947 7.376C80.7027 7.20533 80.5054 7.12 80.3027 7.12H77.3268L77.5187 6.832V10.912L77.3428 10.656H80.3027Z" fill="#D65656"/>
<path d="M1 12.4833C1 11.428 1.75469 9.93139 2.71609 9.49635V9.49635C3.05122 9.3447 3.3363 9.47585 3.64303 9.67888C4.27853 10.0995 4.95 11.066 5.63901 11.066C5.75348 11.066 5.86795 11.0223 5.98281 10.951C6.92141 10.3687 7.5625 10.6786 7.5625 11.7832V14C7.5625 15.1046 6.66707 16 5.5625 16H3C1.89543 16 1 15.1046 1 14V12.4833Z" fill="#D65656"/>
<rect x="2.875" y="1" width="2.8125" height="1.875" rx="0.9375" fill="#D9D9D9"/>
<path d="M2.875 2.875H5.6875V1.625C5.6875 1.45924 5.61342 1.30027 5.48156 1.18306C5.3497 1.06585 5.17086 1 4.98438 1H3.57812C3.39164 1 3.2128 1.06585 3.08094 1.18306C2.94908 1.30027 2.875 1.45924 2.875 1.625V2.875Z" stroke="black" stroke-linecap="round" stroke-linejoin="round"/>
<path d="M5.59375 1.9375C5.59375 3.24411 5.92647 4.51857 6.54531 5.5833L6.57812 5.63955C7.21849 6.74101 7.56257 8.05947 7.5625 9.41152V14.3929C7.5625 14.8191 7.42422 15.2279 7.17808 15.5293C6.93194 15.8307 6.5981 16 6.25 16H2.3125C1.9644 16 1.63056 15.8307 1.38442 15.5293C1.13828 15.2279 1 14.8191 1 14.3929V9.41071C1 8.05911 1.34387 6.74125 1.98438 5.63955L2.01719 5.5833C2.63614 4.51869 2.96875 3.24434 2.96875 1.9375" stroke="black" stroke-linecap="round" stroke-linejoin="round"/>
<path d="M1 11.1274C1.26186 10.9658 1.48807 10.7058 1.65448 10.375C1.8036 10.0784 2.00106 9.83817 2.2298 9.67491C2.45854 9.51166 2.71169 9.43035 2.96737 9.43799C3.22306 9.43035 3.4762 9.51166 3.70494 9.67491C3.93368 9.83817 4.13114 10.0784 4.28027 10.375C4.42939 10.6716 4.62685 10.9118 4.85559 11.0751C5.08433 11.2383 5.33748 11.3197 5.59316 11.312C5.84884 11.3197 6.10199 11.2383 6.33073 11.0751C6.55947 10.9118 6.75693 10.6716 6.90605 10.375C7.07282 10.0432 7.29976 9.78239 7.5625 9.62071" stroke="black" stroke-linecap="round" stroke-linejoin="round"/>
</svg>
